<svg width="22" height="22" viewBox="0 0 22 22" fill="none" xmlns="http://www.w3.org/2000/svg">
<path d="M6.33325 9.24967C7.29975 9.24967 8.08325 8.46617 8.08325 7.49967C8.08325 6.53318 7.29975 5.74967 6.33325 5.74967C5.36675 5.74967 4.58325 6.53318 4.58325 7.49967C4.58325 8.46617 5.36675 9.24967 6.33325 9.24967Z" fill="#009FE3"/>
<path fill-rule="evenodd" clip-rule="evenodd" d="M3.70825 0.208008C1.77525 0.208008 0.208252 1.77501 0.208252 3.70801V18.2913C0.208252 20.2243 1.77526 21.7913 3.70825 21.7913H18.2916C20.2246 21.7913 21.7916 20.2243 21.7916 18.2913V3.70801C21.7916 1.77501 20.2246 0.208008 18.2916 0.208008H3.70825ZM18.2916 2.54134H3.70825C3.06392 2.54134 2.54159 3.06368 2.54159 3.70801V12.7708L5.45682 10.9769C5.65082 10.8575 5.89658 10.8619 6.08612 10.9883L9.19744 13.0625L14.1418 9.21688C14.3525 9.05305 14.6474 9.05305 14.8581 9.21688L19.4583 12.7948V3.70801C19.4583 3.06368 18.9359 2.54134 18.2916 2.54134ZM2.54159 18.2913V15.5106L5.72477 13.5517L9.30246 15.9368L14.5 11.8943L19.4583 15.7508V18.2913C19.4583 18.9357 18.9359 19.458 18.2916 19.458H3.70825C3.06392 19.458 2.54159 18.9357 2.54159 18.2913Z" fill="#009FE3"/>
</svg>
