<svg width="41" height="45" viewBox="0 0 41 45" fill="none" xmlns="http://www.w3.org/2000/svg">
<path d="M12.9594 43.5003V29.0001C12.9594 27.9027 12.9594 27.354 13.1753 26.9348C13.3653 26.5661 13.6683 26.2663 14.0411 26.0785C14.4648 25.8649 15.0196 25.8649 16.1291 25.8649H21.676C22.7854 25.8649 23.3402 25.8649 23.7639 26.0785C24.1367 26.2663 24.4398 26.5661 24.6297 26.9348C24.8456 27.354 24.8456 27.9027 24.8456 29.0001V43.5003M16.9565 7.76713L3.52059 18.1037C2.62245 18.7946 2.17338 19.1401 1.84986 19.5728C1.56328 19.956 1.3498 20.3878 1.21989 20.8468C1.07324 21.365 1.07324 21.9277 1.07324 23.0532V37.2299C1.07324 39.4248 1.07324 40.5222 1.50508 41.3605C1.88494 42.0979 2.49105 42.6974 3.23656 43.0731C4.0841 43.5003 5.19358 43.5003 7.41254 43.5003H30.3925C32.6114 43.5003 33.7209 43.5003 34.5685 43.0731C35.314 42.6974 35.9201 42.0979 36.2999 41.3605C36.7318 40.5222 36.7318 39.4248 36.7318 37.2299V23.0532C36.7318 21.9277 36.7318 21.365 36.5851 20.8468C36.4552 20.3878 36.2417 19.956 35.9552 19.5728C35.6316 19.1401 35.1826 18.7946 34.2844 18.1037L20.8485 7.76713C20.1525 7.2317 19.8045 6.96398 19.4202 6.86107C19.0812 6.77027 18.7238 6.77027 18.3848 6.86107C18.0005 6.96398 17.6525 7.2317 16.9565 7.76713Z" stroke="#8D98AA" stroke-width="2" stroke-linecap="round" stroke-linejoin="round"/>
<path fill-rule="evenodd" clip-rule="evenodd" d="M28.3416 6.79292C28.3416 6.2137 28.8442 5.74414 29.4642 5.74414H39.8043C40.4243 5.74414 40.9269 6.2137 40.9269 6.79292C40.9269 7.37215 40.4243 7.8417 39.8043 7.8417H29.4642C28.8442 7.8417 28.3416 7.37215 28.3416 6.79292Z" fill="#8D98AA"/>
<path fill-rule="evenodd" clip-rule="evenodd" d="M34.6342 0.5C35.2135 0.5 35.683 1.00262 35.683 1.62262V11.9627C35.683 12.5828 35.2135 13.0854 34.6342 13.0854C34.055 13.0854 33.5854 12.5828 33.5854 11.9627V1.62262C33.5854 1.00262 34.055 0.5 34.6342 0.5Z" fill="#8D98AA"/>
</svg>
