<svg width="20" height="20" viewBox="0 0 20 20" fill="none" xmlns="http://www.w3.org/2000/svg">
<path d="M17.1872 1.47368H12.9091V1.43158C12.9091 0.631579 12.2674 0 11.4545 0H8.54545C7.73262 0 7.09091 0.631579 7.09091 1.43158V1.47368H2.81283C2.36364 1.47368 2 1.83158 2 2.27368V3.07368C2 3.51579 2.36364 3.87368 2.81283 3.87368H17.1872C17.6364 3.87368 18 3.51579 18 3.07368V2.27368C18 1.83158 17.6364 1.47368 17.1872 1.47368Z" fill="#7D90B2"/>
<path d="M16.1176 4.96826H3.88235C3.64706 4.96826 3.47594 5.15774 3.49733 5.38931L4.09626 17.5788C4.16043 18.9262 5.29412 19.9998 6.6631 19.9998H13.3155C14.6845 19.9998 15.8182 18.9472 15.8824 17.5788L16.4813 5.38931C16.5241 5.17879 16.3315 4.96826 16.1176 4.96826ZM8.6738 16.7367C8.6738 17.1156 8.37433 17.4104 7.9893 17.4104C7.60428 17.4104 7.30481 17.1156 7.30481 16.7367V8.25247C7.30481 7.87352 7.60428 7.57879 7.9893 7.57879C8.37433 7.57879 8.6738 7.87352 8.6738 8.25247V16.7367ZM12.6952 16.7367C12.6952 17.1156 12.3957 17.4104 12.0107 17.4104C11.6257 17.4104 11.3262 17.1156 11.3262 16.7367V8.25247C11.3262 7.87352 11.6257 7.57879 12.0107 7.57879C12.3957 7.57879 12.6952 7.87352 12.6952 8.25247V16.7367Z" fill="#7D90B2"/>
</svg>
