<svg width="17" height="17" viewBox="0 0 17 17" fill="none" xmlns="http://www.w3.org/2000/svg">
<path d="M1.10579 0.299074C1.22384 0.232176 1.43241 0.141667 1.57407 0.0944444L1.82986 0.00393519L5.27315 0C8.5669 0 8.72431 0.00393519 8.87384 0.0747685C8.96042 0.11412 9.10208 0.224306 9.18866 0.322685C9.27523 0.421065 9.36968 0.566667 9.39329 0.653241C9.42083 0.73588 9.44444 0.869676 9.44444 0.944444C9.44444 1.01921 9.42083 1.15301 9.39329 1.23565C9.36968 1.32222 9.27523 1.47176 9.18472 1.57014C9.07978 1.69082 8.96173 1.77477 8.83055 1.82199C8.65347 1.88495 8.38981 1.88889 2.08171 1.88889L1.88889 2.08565V14.9144L2.08565 15.1111H5.35972C8.38981 15.1111 8.65347 15.115 8.83055 15.178C8.96173 15.2252 9.07978 15.3092 9.18472 15.4299C9.27523 15.5282 9.36968 15.6778 9.39329 15.7644C9.42083 15.847 9.44444 15.9808 9.44444 16.0556C9.44444 16.1303 9.42083 16.2641 9.39329 16.3468C9.36968 16.4333 9.27523 16.5789 9.18866 16.6773C9.10208 16.7757 8.96042 16.8859 8.87384 16.9252C8.72431 16.9961 8.56296 17 1.86921 17L1.57407 16.9016C1.41273 16.8465 1.19236 16.7521 1.08611 16.6931C0.979861 16.634 0.779167 16.4727 0.641435 16.331C0.456481 16.1461 0.342361 15.9847 0.236111 15.7604C0.153472 15.5873 0.0668981 15.3394 0.043287 15.2095C0.0118056 15.0481 0 12.9428 0 8.5C0 4.05718 0.0118056 1.95185 0.043287 1.79051C0.0668981 1.66065 0.153472 1.41273 0.236111 1.23958C0.342361 1.01528 0.456481 0.853935 0.641435 0.668981C0.779167 0.527315 0.991667 0.362037 1.10579 0.299074Z" fill="#009FE3"/>
<path d="M12.2581 4.70255C12.3644 4.59236 12.5178 4.48611 12.5926 4.4625C12.6674 4.43889 12.8012 4.41528 12.8877 4.41528C12.9743 4.41134 13.116 4.43102 13.2025 4.45463C13.3324 4.49398 13.6433 4.78518 15.0914 6.22546C16.0437 7.16991 16.8623 8.01991 16.9134 8.10648C16.9764 8.2206 17 8.33079 17 8.50393C17 8.67315 16.9764 8.78333 16.9134 8.89745C16.8623 8.98403 16.0437 9.83403 15.0914 10.7785C13.6433 12.2187 13.3324 12.51 13.2025 12.5493C13.116 12.5729 12.9822 12.5926 12.9074 12.5926C12.8326 12.5926 12.6988 12.5729 12.6123 12.5454C12.5178 12.5178 12.3762 12.4234 12.2581 12.3014C12.1361 12.1794 12.0417 12.0417 12.0102 11.9472C11.9866 11.8606 11.963 11.7269 11.963 11.6521C11.963 11.5734 11.9866 11.4435 12.0102 11.3569C12.0456 11.2271 12.2266 11.0264 13.7928 9.44444H9.18866C5.72176 9.44444 4.54514 9.43264 4.42708 9.39722C4.33264 9.36968 4.19097 9.27523 4.07292 9.15324C3.95093 9.03125 3.85648 8.89352 3.825 8.79907C3.80139 8.7125 3.77778 8.5787 3.77778 8.50393C3.77778 8.42523 3.80139 8.29537 3.825 8.2088C3.85648 8.11042 3.95093 7.97268 4.07292 7.85069C4.19097 7.7287 4.33264 7.63426 4.42708 7.60671C4.54514 7.5713 5.72176 7.55949 13.7928 7.55949L12.9231 6.68194C12.2266 5.97755 12.0456 5.77685 12.0102 5.65093C11.9866 5.56435 11.963 5.43056 11.963 5.35579C11.963 5.27708 11.9866 5.14722 12.0102 5.06065C12.0417 4.96227 12.1361 4.82454 12.2581 4.70255Z" fill="#009FE3"/>
</svg>
