<svg width="21" height="20" viewBox="0 0 21 20" fill="none" xmlns="http://www.w3.org/2000/svg">
<path fill-rule="evenodd" clip-rule="evenodd" d="M5.5 2.5C4.11929 2.5 3 3.61929 3 5V15C3 16.3807 4.11929 17.5 5.5 17.5H15.5C16.8807 17.5 18 16.3807 18 15V7.47072C18 6.80768 17.7366 6.17179 17.2678 5.70295L14.797 3.23223C14.3282 2.76339 13.6923 2.5 13.0293 2.5H5.5ZM13.0293 4.16667H13V5.83333C13 6.75381 12.2538 7.5 11.3333 7.5H8C7.07953 7.5 6.33333 6.75381 6.33333 5.83333V4.16667H5.5C5.03976 4.16667 4.66667 4.53976 4.66667 5V15C4.66667 15.4602 5.03976 15.8333 5.5 15.8333H6.33333V10.8333C6.33333 9.91286 7.07953 9.16667 8 9.16667H13C13.9205 9.16667 14.6667 9.91286 14.6667 10.8333V15.8333H15.5C15.9602 15.8333 16.3333 15.4602 16.3333 15V7.47072C16.3333 7.24971 16.2455 7.03774 16.0893 6.88146L13.6185 4.41074C13.4623 4.25446 13.2503 4.16667 13.0293 4.16667ZM13 15.8333V10.8333H8V15.8333H13ZM8 4.16667H11.3333V5.83333H8V4.16667Z" fill="white"/>
</svg>
