<svg width="21" height="21" viewBox="0 0 21 21" fill="none" xmlns="http://www.w3.org/2000/svg">
<path d="M13.2197 14.2803C13.5126 14.5732 13.9874 14.5732 14.2803 14.2803C14.5732 13.9874 14.5732 13.5126 14.2803 13.2197L11.5607 10.5L14.2803 7.78033C14.5732 7.48744 14.5732 7.01256 14.2803 6.71967C13.9874 6.42678 13.5126 6.42678 13.2197 6.71967L10.5 9.43934L7.78033 6.71967C7.48744 6.42678 7.01256 6.42678 6.71967 6.71967C6.42678 7.01256 6.42678 7.48744 6.71967 7.78033L9.43934 10.5L6.71967 13.2197C6.42678 13.5126 6.42678 13.9874 6.71967 14.2803C7.01256 14.5732 7.48744 14.5732 7.78033 14.2803L10.5 11.5607L13.2197 14.2803Z" fill="#4A4A4A"/>
</svg>
