<svg width="34" height="34" viewBox="0 0 34 34" fill="none" xmlns="http://www.w3.org/2000/svg">
<path d="M26.9167 15.5833H7.08333M26.9167 15.5833C27.6681 15.5833 28.3888 15.8818 28.9201 16.4132C29.4515 16.9446 29.75 17.6652 29.75 18.4167V26.9167C29.75 27.6681 29.4515 28.3888 28.9201 28.9201C28.3888 29.4515 27.6681 29.75 26.9167 29.75H7.08333C6.33189 29.75 5.61122 29.4515 5.07986 28.9201C4.54851 28.3888 4.25 27.6681 4.25 26.9167V18.4167C4.25 17.6652 4.54851 16.9446 5.07986 16.4132C5.61122 15.8818 6.33189 15.5833 7.08333 15.5833M26.9167 15.5833V12.75C26.9167 11.9986 26.6182 11.2779 26.0868 10.7465C25.5554 10.2152 24.8348 9.91667 24.0833 9.91667M7.08333 15.5833V12.75C7.08333 11.9986 7.38184 11.2779 7.9132 10.7465C8.44455 10.2152 9.16522 9.91667 9.91667 9.91667M9.91667 9.91667V7.08333C9.91667 6.33189 10.2152 5.61122 10.7465 5.07986C11.2779 4.54851 11.9986 4.25 12.75 4.25H21.25C22.0014 4.25 22.7221 4.54851 23.2535 5.07986C23.7848 5.61122 24.0833 6.33189 24.0833 7.08333V9.91667M9.91667 9.91667H24.0833" stroke="#009FE3" stroke-width="2" stroke-linecap="round" stroke-linejoin="round"/>
</svg>
