<svg width="24" height="24" viewBox="0 0 24 24" fill="none" xmlns="http://www.w3.org/2000/svg">
<path fill-rule="evenodd" clip-rule="evenodd" d="M12 4.2C10.3431 4.2 8.99995 5.54315 8.99995 7.2C8.99995 8.85685 10.3431 10.2 12 10.2C13.6568 10.2 15 8.85685 15 7.2C15 5.54315 13.6568 4.2 12 4.2ZM7.79995 7.2C7.79995 4.8804 9.68036 3 12 3C14.3195 3 16.2 4.8804 16.2 7.2C16.2 9.5196 14.3195 11.4 12 11.4C9.68036 11.4 7.79995 9.5196 7.79995 7.2Z" fill="#A3AED0"/>
<path fill-rule="evenodd" clip-rule="evenodd" d="M12 13.8C8.35487 13.8 5.39995 16.7549 5.39995 20.4C5.39995 20.7314 5.13132 21 4.79995 21C4.46858 21 4.19995 20.7314 4.19995 20.4C4.19995 16.0922 7.69213 12.6 12 12.6C16.3078 12.6 19.8 16.0922 19.8 20.4C19.8 20.7314 19.5313 21 19.2 21C18.8686 21 18.6 20.7314 18.6 20.4C18.6 16.7549 15.645 13.8 12 13.8Z" fill="#A3AED0"/>
<path d="M9.24995 7.2C9.24995 5.68122 10.4812 4.45 12 4.45V3.95C10.205 3.95 8.74995 5.40507 8.74995 7.2H9.24995ZM12 9.95C10.4812 9.95 9.24995 8.71878 9.24995 7.2H8.74995C8.74995 8.99493 10.205 10.45 12 10.45V9.95ZM14.75 7.2C14.75 8.71878 13.5187 9.95 12 9.95V10.45C13.7949 10.45 15.25 8.99493 15.25 7.2H14.75ZM12 4.45C13.5187 4.45 14.75 5.68122 14.75 7.2H15.25C15.25 5.40507 13.7949 3.95 12 3.95V4.45ZM12 2.75C9.54228 2.75 7.54995 4.74233 7.54995 7.2H8.04995C8.04995 5.01848 9.81843 3.25 12 3.25V2.75ZM16.45 7.2C16.45 4.74233 14.4576 2.75 12 2.75V3.25C14.1815 3.25 15.95 5.01848 15.95 7.2H16.45ZM12 11.65C14.4576 11.65 16.45 9.65767 16.45 7.2H15.95C15.95 9.38153 14.1815 11.15 12 11.15V11.65ZM7.54995 7.2C7.54995 9.65767 9.54228 11.65 12 11.65V11.15C9.81843 11.15 8.04995 9.38153 8.04995 7.2H7.54995ZM5.64995 20.4C5.64995 16.893 8.49294 14.05 12 14.05V13.55C8.2168 13.55 5.14995 16.6168 5.14995 20.4H5.64995ZM4.79995 21.25C5.26939 21.25 5.64995 20.8694 5.64995 20.4H5.14995C5.14995 20.5933 4.99325 20.75 4.79995 20.75V21.25ZM3.94995 20.4C3.94995 20.8694 4.33051 21.25 4.79995 21.25V20.75C4.60665 20.75 4.44995 20.5933 4.44995 20.4H3.94995ZM12 12.35C7.55406 12.35 3.94995 15.9541 3.94995 20.4H4.44995C4.44995 16.2303 7.8302 12.85 12 12.85V12.35ZM20.05 20.4C20.05 15.9541 16.4458 12.35 12 12.35V12.85C16.1697 12.85 19.55 16.2303 19.55 20.4H20.05ZM19.2 21.25C19.6694 21.25 20.05 20.8694 20.05 20.4H19.55C19.55 20.5933 19.3932 20.75 19.2 20.75V21.25ZM18.35 20.4C18.35 20.8694 18.7305 21.25 19.2 21.25V20.75C19.0067 20.75 18.85 20.5933 18.85 20.4H18.35ZM12 14.05C15.507 14.05 18.35 16.893 18.35 20.4H18.85C18.85 16.6168 15.7831 13.55 12 13.55V14.05Z" fill="#A3AED0"/>
</svg>
