<svg width="24" height="24" viewBox="0 0 24 24" fill="none" xmlns="http://www.w3.org/2000/svg">
<rect width="24" height="24" fill="#C8C8C8"/>
<g id="&#208;&#158;&#209;&#130;&#209;&#135;&#208;&#181;&#209;&#130;&#209;&#139; &#208;&#191;&#208;&#190; &#208;&#191;&#209;&#128;&#208;&#190;&#208;&#180;&#208;&#176;&#208;&#182;&#208;&#176;&#208;&#188;" clip-path="url(#clip0_0_1)">
<rect width="1920" height="1055" transform="translate(-31 -286)" fill="#F1F5F9"/>
<g id="SideBar">
<g clip-path="url(#clip1_0_1)">
<g id="SideBar - Notification + Pro CTA + Avatar">
<rect width="290" height="1242" transform="translate(-31 -286)" fill="white"/>
<g id="Pages">
</g>
<g id="Icon/Outline/collection">
<path id="Vector" d="M19 11H5M19 11C19.5304 11 20.0391 11.2107 20.4142 11.5858C20.7893 11.9609 21 12.4696 21 13V19C21 19.5304 20.7893 20.0391 20.4142 20.4142C20.0391 20.7893 19.5304 21 19 21H5C4.46957 21 3.96086 20.7893 3.58579 20.4142C3.21071 20.0391 3 19.5304 3 19V13C3 12.4696 3.21071 11.9609 3.58579 11.5858C3.96086 11.2107 4.46957 11 5 11M19 11V9C19 8.46957 18.7893 7.96086 18.4142 7.58579C18.0391 7.21071 17.5304 7 17 7M5 11V9C5 8.46957 5.21071 7.96086 5.58579 7.58579C5.96086 7.21071 6.46957 7 7 7M7 7V5C7 4.46957 7.21071 3.96086 7.58579 3.58579C7.96086 3.21071 8.46957 3 9 3H15C15.5304 3 16.0391 3.21071 16.4142 3.58579C16.7893 3.96086 17 4.46957 17 5V7M7 7H17" stroke="#A3AED0" stroke-width="1.4" stroke-linecap="round" stroke-linejoin="round"/>
</g>
</g>
</g>
</g>
</g>
<defs>
<clipPath id="clip0_0_1">
<rect width="1920" height="1055" fill="white" transform="translate(-31 -286)"/>
</clipPath>
<clipPath id="clip1_0_1">
<path d="M-31 -286H259V936C259 947.046 250.046 956 239 956H-31V-286Z" fill="white"/>
</clipPath>
</defs>
</svg>
