<svg width="24" height="24" viewBox="0 0 24 24" fill="none" xmlns="http://www.w3.org/2000/svg">
<path fill-rule="evenodd" clip-rule="evenodd" d="M9.95173 3.95158C10.1768 3.72653 10.482 3.6001 10.8003 3.6001H13.2004C13.5186 3.6001 13.8238 3.72653 14.0489 3.95158C14.2739 4.17662 14.4004 4.48185 14.4004 4.80012V19.2006H15.6005V9.60024C15.6005 9.28198 15.7269 8.97675 15.9519 8.7517C16.177 8.52665 16.4822 8.40022 16.8005 8.40022H19.2006C19.5188 8.40022 19.8241 8.52665 20.0491 8.7517C20.2741 8.97675 20.4006 9.28198 20.4006 9.60024V19.2006H21.0006C21.332 19.2006 21.6006 19.4692 21.6006 19.8006C21.6006 20.132 21.332 20.4006 21.0006 20.4006H19.8022C19.8017 20.4006 19.8011 20.4006 19.8006 20.4006H16.2005C16.1999 20.4006 16.1993 20.4006 16.1988 20.4006H3.00002C2.66865 20.4006 2.40002 20.132 2.40002 19.8006C2.40002 19.4692 2.66865 19.2006 3.00002 19.2006H3.60007V12.0003C3.60007 11.6821 3.7265 11.3769 3.95155 11.1518C4.17659 10.9268 4.48182 10.8003 4.80009 10.8003H7.20017C7.51843 10.8003 7.82366 10.9268 8.04871 11.1518C8.27376 11.3769 8.40019 11.6821 8.40019 12.0003V19.2006H9.60025V4.80012C9.60025 4.48185 9.72669 4.17662 9.95173 3.95158ZM19.2006 19.2006V9.60024L16.8005 9.60022L16.8005 19.2006H19.2006ZM10.8003 4.8001L10.8003 19.2006H13.2004V4.80012L10.8003 4.8001ZM4.80007 12.0003L7.20017 12.0003L7.20019 19.2006H4.80007L4.80007 12.0003Z" fill="#A3AED0"/>
</svg>
