<svg width="24" height="24" viewBox="0 0 24 24" fill="none" xmlns="http://www.w3.org/2000/svg">
<path fill-rule="evenodd" clip-rule="evenodd" d="M4.10381 5.30388C4.42641 4.98128 4.86395 4.80005 5.32018 4.80005H17.6424C18.0986 4.80005 18.5362 4.98128 18.8588 5.30388C19.1814 5.62648 19.3626 6.06402 19.3626 6.52025V9.24096C19.3626 9.57234 19.094 9.84096 18.7626 9.84096C18.4313 9.84096 18.1626 9.57234 18.1626 9.24096V9.00005H4.79998V15.4819C4.79998 15.6198 4.85478 15.7522 4.95234 15.8497C5.0499 15.9473 5.18221 16.0021 5.32018 16.0021H10.9212C11.2526 16.0021 11.5212 16.2707 11.5212 16.6021C11.5212 16.9335 11.2526 17.2021 10.9212 17.2021H5.32018C4.86395 17.2021 4.42641 17.0209 4.10381 16.6982C3.78121 16.3756 3.59998 15.9381 3.59998 15.4819V6.52025C3.59998 6.06403 3.78121 5.62649 4.10381 5.30388ZM18.1626 6.52025V7.80005H4.79998V6.52025C4.79998 6.38229 4.85478 6.24997 4.95234 6.15241C5.0499 6.05486 5.18221 6.00005 5.32018 6.00005H17.6424C17.7804 6.00005 17.9127 6.05486 18.0103 6.15241C18.1078 6.24997 18.1626 6.38229 18.1626 6.52025Z" fill="#A3AED0"/>
<path d="M6.4406 10.9612C6.10923 10.9612 5.8406 11.2298 5.8406 11.5612C5.8406 11.8926 6.10923 12.1612 6.4406 12.1612H12.4406C12.772 12.1612 13.0406 11.8926 13.0406 11.5612C13.0406 11.2298 12.772 10.9612 12.4406 10.9612H6.4406Z" fill="#A3AED0"/>
<path d="M5.8406 13.8015C5.8406 13.4701 6.10923 13.2015 6.4406 13.2015H8.8406C9.17197 13.2015 9.4406 13.4701 9.4406 13.8015C9.4406 14.1329 9.17197 14.4015 8.8406 14.4015H6.4406C6.10923 14.4015 5.8406 14.1329 5.8406 13.8015Z" fill="#A3AED0"/>
<path fill-rule="evenodd" clip-rule="evenodd" d="M18.1775 14.4154C17.9146 14.1522 17.7669 13.7954 17.7669 13.4234C17.7669 13.0514 17.9146 12.6946 18.1775 12.4314L19.5967 11.0122C19.8598 10.7493 20.2168 10.6014 20.5889 10.6014C20.9609 10.6014 21.3177 10.7491 21.5809 11.0121L21.9186 11.3498C22.4029 11.834 22.7075 12.469 22.7821 13.1498C22.8544 13.8096 22.7065 14.4743 22.3623 15.0405C22.3524 15.0609 22.3413 15.0807 22.3291 15.0999C21.6755 16.1265 20.9116 17.0786 20.0509 17.939L19.139 18.8508C18.2791 19.7109 17.3275 20.4741 16.3013 21.1269C16.2833 21.1384 16.2648 21.1488 16.2458 21.1582C15.6789 21.5036 15.0131 21.6521 14.352 21.5796C13.6714 21.505 13.0365 21.2005 12.5522 20.7165L12.2145 20.3788C11.9516 20.1156 11.8037 19.7586 11.8037 19.3866C11.8037 19.0146 11.9514 18.6578 12.2143 18.3946L13.6334 16.9755C13.8966 16.7125 14.2536 16.5646 14.6257 16.5646C14.9976 16.5646 15.3544 16.7123 15.6176 16.9752C15.6559 17.0134 15.7078 17.0349 15.7619 17.0349C15.816 17.0349 15.868 17.0134 15.9063 16.9752L18.1777 14.7037C18.1966 14.6849 18.2121 14.662 18.2223 14.6374C18.2325 14.6127 18.2378 14.5863 18.2378 14.5596C18.2378 14.533 18.2325 14.5066 18.2223 14.4819C18.2121 14.4573 18.1964 14.4342 18.1775 14.4154ZM20.445 11.861C20.4832 11.8228 20.5349 11.8014 20.5889 11.8014C20.6428 11.8014 20.6946 11.8228 20.7327 11.861L21.0701 12.1983C21.3613 12.4895 21.5444 12.8712 21.5893 13.2805C21.6341 13.6898 21.538 14.1021 21.3169 14.4494C21.3059 14.4667 21.2958 14.4844 21.2867 14.5026C20.6868 15.4374 19.988 16.305 19.2024 17.0904L18.2905 18.0023C17.5049 18.788 16.6369 19.4866 15.7015 20.0861C15.6846 20.0948 15.668 20.1042 15.6518 20.1145C15.3045 20.3356 14.8921 20.4316 14.4828 20.3868C14.0735 20.3419 13.6918 20.1589 13.4006 19.8678L13.0632 19.5305C13.0252 19.4923 13.0037 19.4405 13.0037 19.3866C13.0037 19.3327 13.0251 19.281 13.0632 19.2428L14.4818 17.8242C14.5199 17.7861 14.5717 17.7646 14.6257 17.7646C14.6796 17.7646 14.7314 17.7861 14.7695 17.8242C15.0328 18.0871 15.3898 18.2349 15.7619 18.2349C16.134 18.2349 16.4909 18.0872 16.7542 17.8243L19.0258 15.5527C19.1562 15.4225 19.2601 15.2675 19.3307 15.0972C19.4014 14.9268 19.4378 14.7441 19.4378 14.5596C19.4378 14.3752 19.4014 14.1925 19.3307 14.0221C19.2601 13.8518 19.1566 13.6971 19.0261 13.5669C18.9882 13.5288 18.9669 13.4772 18.9669 13.4234C18.9669 13.3694 18.9883 13.3177 19.0265 13.2795L20.445 11.861Z" fill="#A3AED0"/>
<path fill-rule="evenodd" clip-rule="evenodd" d="M4.10381 5.30388C4.42641 4.98128 4.86395 4.80005 5.32018 4.80005H17.6424C18.0986 4.80005 18.5362 4.98128 18.8588 5.30388C19.1814 5.62648 19.3626 6.06402 19.3626 6.52025V9.24096C19.3626 9.57234 19.094 9.84096 18.7626 9.84096C18.4313 9.84096 18.1626 9.57234 18.1626 9.24096V9.00005H4.79998V15.4819C4.79998 15.6198 4.85478 15.7522 4.95234 15.8497C5.0499 15.9473 5.18221 16.0021 5.32018 16.0021H10.9212C11.2526 16.0021 11.5212 16.2707 11.5212 16.6021C11.5212 16.9335 11.2526 17.2021 10.9212 17.2021H5.32018C4.86395 17.2021 4.42641 17.0209 4.10381 16.6982C3.78121 16.3756 3.59998 15.9381 3.59998 15.4819V6.52025C3.59998 6.06403 3.78121 5.62649 4.10381 5.30388ZM18.1626 6.52025V7.80005H4.79998V6.52025C4.79998 6.38229 4.85478 6.24997 4.95234 6.15241C5.0499 6.05486 5.18221 6.00005 5.32018 6.00005H17.6424C17.7804 6.00005 17.9127 6.05486 18.0103 6.15241C18.1078 6.24997 18.1626 6.38229 18.1626 6.52025Z" stroke="#A3AED0" stroke-width="0.3" stroke-linecap="round" stroke-linejoin="round"/>
<path d="M6.4406 10.9612C6.10923 10.9612 5.8406 11.2298 5.8406 11.5612C5.8406 11.8926 6.10923 12.1612 6.4406 12.1612H12.4406C12.772 12.1612 13.0406 11.8926 13.0406 11.5612C13.0406 11.2298 12.772 10.9612 12.4406 10.9612H6.4406Z" stroke="#A3AED0" stroke-width="0.3" stroke-linecap="round" stroke-linejoin="round"/>
<path d="M5.8406 13.8015C5.8406 13.4701 6.10923 13.2015 6.4406 13.2015H8.8406C9.17197 13.2015 9.4406 13.4701 9.4406 13.8015C9.4406 14.1329 9.17197 14.4015 8.8406 14.4015H6.4406C6.10923 14.4015 5.8406 14.1329 5.8406 13.8015Z" stroke="#A3AED0" stroke-width="0.3" stroke-linecap="round" stroke-linejoin="round"/>
<path fill-rule="evenodd" clip-rule="evenodd" d="M18.1775 14.4154C17.9146 14.1522 17.7669 13.7954 17.7669 13.4234C17.7669 13.0514 17.9146 12.6946 18.1775 12.4314L19.5967 11.0122C19.8598 10.7493 20.2168 10.6014 20.5889 10.6014C20.9609 10.6014 21.3177 10.7491 21.5809 11.0121L21.9186 11.3498C22.4029 11.834 22.7075 12.469 22.7821 13.1498C22.8544 13.8096 22.7065 14.4743 22.3623 15.0405C22.3524 15.0609 22.3413 15.0807 22.3291 15.0999C21.6755 16.1265 20.9116 17.0786 20.0509 17.939L19.139 18.8508C18.2791 19.7109 17.3275 20.4741 16.3013 21.1269C16.2833 21.1384 16.2648 21.1488 16.2458 21.1582C15.6789 21.5036 15.0131 21.6521 14.352 21.5796C13.6714 21.505 13.0365 21.2005 12.5522 20.7165L12.2145 20.3788C11.9516 20.1156 11.8037 19.7586 11.8037 19.3866C11.8037 19.0146 11.9514 18.6578 12.2143 18.3946L13.6334 16.9755C13.8966 16.7125 14.2536 16.5646 14.6257 16.5646C14.9976 16.5646 15.3544 16.7123 15.6176 16.9752C15.6559 17.0134 15.7078 17.0349 15.7619 17.0349C15.816 17.0349 15.868 17.0134 15.9063 16.9752L18.1777 14.7037C18.1966 14.6849 18.2121 14.662 18.2223 14.6374C18.2325 14.6127 18.2378 14.5863 18.2378 14.5596C18.2378 14.533 18.2325 14.5066 18.2223 14.4819C18.2121 14.4573 18.1964 14.4342 18.1775 14.4154ZM20.445 11.861C20.4832 11.8228 20.5349 11.8014 20.5889 11.8014C20.6428 11.8014 20.6946 11.8228 20.7327 11.861L21.0701 12.1983C21.3613 12.4895 21.5444 12.8712 21.5893 13.2805C21.6341 13.6898 21.538 14.1021 21.3169 14.4494C21.3059 14.4667 21.2958 14.4844 21.2867 14.5026C20.6868 15.4374 19.988 16.305 19.2024 17.0904L18.2905 18.0023C17.5049 18.788 16.6369 19.4866 15.7015 20.0861C15.6846 20.0948 15.668 20.1042 15.6518 20.1145C15.3045 20.3356 14.8921 20.4316 14.4828 20.3868C14.0735 20.3419 13.6918 20.1589 13.4006 19.8678L13.0632 19.5305C13.0252 19.4923 13.0037 19.4405 13.0037 19.3866C13.0037 19.3327 13.0251 19.281 13.0632 19.2428L14.4818 17.8242C14.5199 17.7861 14.5717 17.7646 14.6257 17.7646C14.6796 17.7646 14.7314 17.7861 14.7695 17.8242C15.0328 18.0871 15.3898 18.2349 15.7619 18.2349C16.134 18.2349 16.4909 18.0872 16.7542 17.8243L19.0258 15.5527C19.1562 15.4225 19.2601 15.2675 19.3307 15.0972C19.4014 14.9268 19.4378 14.7441 19.4378 14.5596C19.4378 14.3752 19.4014 14.1925 19.3307 14.0221C19.2601 13.8518 19.1566 13.6971 19.0261 13.5669C18.9882 13.5288 18.9669 13.4772 18.9669 13.4234C18.9669 13.3694 18.9883 13.3177 19.0265 13.2795L20.445 11.861Z" stroke="#A3AED0" stroke-width="0.3" stroke-linecap="round" stroke-linejoin="round"/>
</svg>
