<svg width="24" height="24" viewBox="0 0 24 24" fill="none" xmlns="http://www.w3.org/2000/svg">
<path fill-rule="evenodd" clip-rule="evenodd" d="M8.22728 3.6001C5.95096 3.6001 4.10563 5.53033 4.10563 7.91139C4.10563 10.2924 5.95096 12.2227 8.22728 12.2227C10.5036 12.2227 12.3489 10.2924 12.3489 7.91139C12.3489 5.53033 10.5036 3.6001 8.22728 3.6001ZM8.22728 4.76844C9.88673 4.76844 11.232 6.17558 11.232 7.91139C11.232 9.64719 9.88673 11.0543 8.22728 11.0543C6.56783 11.0543 5.22258 9.64719 5.22258 7.91139C5.22258 6.17558 6.56783 4.76844 8.22728 4.76844ZM18.3636 4.55863C16.6243 3.09019 14.0829 3.33988 12.6354 5.12142C12.4357 5.36725 12.4643 5.73592 12.6993 5.94485C12.9343 6.15378 13.2868 6.12386 13.4865 5.87802C14.5417 4.57937 16.3942 4.39736 17.6621 5.46778C18.9299 6.5382 19.1508 8.47073 18.16 9.82364C17.1691 11.1766 15.3278 11.4565 14.0097 10.4547C13.8862 10.3597 13.7674 10.2531 13.6567 10.1376C13.4384 9.90967 13.0848 9.91005 12.8669 10.1384C12.649 10.3668 12.6494 10.7367 12.8677 10.9646C13.018 11.1215 13.1795 11.2664 13.3506 11.398C15.1613 12.7742 17.6873 12.3901 19.0466 10.5342C20.4059 8.67818 20.1029 6.02707 18.3636 4.55863ZM1.80005 19.8159C1.80005 16.1029 4.67762 13.093 8.22728 13.093C11.7769 13.093 14.6545 16.1029 14.6545 19.8159C14.6545 20.1386 14.4045 20.4001 14.096 20.4001H2.35852C2.05009 20.4001 1.80005 20.1386 1.80005 19.8159ZM13.4764 18.97C13.1003 16.3957 11.0348 14.4029 8.50054 14.2685L8.22728 14.2613C5.56944 14.2613 3.36766 16.3038 2.97818 18.97L2.94441 19.231H13.5079L13.4764 18.97ZM19.6128 14.4269C17.986 13.1582 15.8822 12.767 13.937 13.3715C13.6413 13.4634 13.4728 13.7886 13.5607 14.0978C13.6485 14.4071 13.9594 14.5833 14.2551 14.4914C15.8624 13.9919 17.6009 14.3152 18.9452 15.3635L19.1907 15.567C20.2261 16.4784 20.8874 17.7667 21.046 19.1644L21.0515 19.231L16.192 19.2318L16.0795 19.2436C15.825 19.2981 15.6335 19.5336 15.6335 19.8159C15.6335 20.1386 15.8836 20.4001 16.192 20.4001H21.6416L21.7542 20.3882C22.0088 20.3337 22.2002 20.098 22.2001 19.8155C22.1986 17.693 21.2396 15.6956 19.6128 14.4269Z" fill="#A3AED0"/>
<path d="M18.3636 4.55863L18.2346 4.71145L18.2346 4.71145L18.3636 4.55863ZM12.6354 5.12142L12.4802 4.9953L12.4802 4.9953L12.6354 5.12142ZM12.6993 5.94485L12.5664 6.09432L12.5664 6.09432L12.6993 5.94485ZM13.4865 5.87802L13.3313 5.75191L13.3313 5.75191L13.4865 5.87802ZM17.6621 5.46778L17.7911 5.31496L17.7911 5.31496L17.6621 5.46778ZM18.16 9.82364L17.9986 9.70547L17.9986 9.70547L18.16 9.82364ZM14.0097 10.4547L13.8878 10.6132L13.8887 10.6139L14.0097 10.4547ZM13.6567 10.1376L13.8011 9.99922L13.8011 9.99922L13.6567 10.1376ZM12.8669 10.1384L12.7222 10.0004L12.7222 10.0004L12.8669 10.1384ZM12.8677 10.9646L12.7233 11.1029L12.7233 11.1029L12.8677 10.9646ZM13.3506 11.398L13.2287 11.5565L13.2296 11.5572L13.3506 11.398ZM19.0466 10.5342L18.8853 10.416L18.8853 10.416L19.0466 10.5342ZM13.4764 18.97L13.675 18.946L13.6743 18.9411L13.4764 18.97ZM8.50054 14.2685L8.51114 14.0687L8.50583 14.0686L8.50054 14.2685ZM8.22728 14.2613L8.23257 14.0613H8.22728V14.2613ZM2.97818 18.97L2.78025 18.9411L2.77983 18.9444L2.97818 18.97ZM2.94441 19.231L2.74607 19.2053L2.71687 19.431H2.94441V19.231ZM13.5079 19.231V19.431H13.7336L13.7065 19.207L13.5079 19.231ZM19.6128 14.4269L19.4898 14.5846L19.4898 14.5846L19.6128 14.4269ZM13.937 13.3715L13.9963 13.5625L13.9963 13.5625L13.937 13.3715ZM13.5607 14.0978L13.3683 14.1525L13.3683 14.1525L13.5607 14.0978ZM14.2551 14.4914L14.1957 14.3005L14.1957 14.3005L14.2551 14.4914ZM18.9452 15.3635L19.0729 15.2095L19.0682 15.2058L18.9452 15.3635ZM19.1907 15.567L19.3229 15.4168L19.3183 15.4131L19.1907 15.567ZM21.046 19.1644L21.2455 19.1481L21.2448 19.1419L21.046 19.1644ZM21.0515 19.231L21.0515 19.431L21.2686 19.431L21.2508 19.2147L21.0515 19.231ZM16.192 19.2318L16.192 19.0318L16.1815 19.0318L16.171 19.0329L16.192 19.2318ZM16.0795 19.2436L16.0585 19.0447L16.048 19.0458L16.0376 19.0481L16.0795 19.2436ZM21.6416 20.4001V20.6001H21.6521L21.6626 20.599L21.6416 20.4001ZM21.7542 20.3882L21.7752 20.5871L21.7857 20.586L21.7961 20.5838L21.7542 20.3882ZM22.2001 19.8155L22.4001 19.8154L22.4001 19.8154L22.2001 19.8155ZM8.22728 3.4001C5.83212 3.4001 3.90563 5.42844 3.90563 7.91139H4.30563C4.30563 5.63221 6.0698 3.8001 8.22728 3.8001V3.4001ZM3.90563 7.91139C3.90563 10.3943 5.83212 12.4227 8.22728 12.4227V12.0227C6.0698 12.0227 4.30563 10.1906 4.30563 7.91139H3.90563ZM8.22728 12.4227C10.6224 12.4227 12.5489 10.3943 12.5489 7.91139H12.1489C12.1489 10.1906 10.3848 12.0227 8.22728 12.0227V12.4227ZM12.5489 7.91139C12.5489 5.42844 10.6224 3.4001 8.22728 3.4001V3.8001C10.3848 3.8001 12.1489 5.63221 12.1489 7.91139H12.5489ZM8.22728 4.96844C9.76789 4.96844 11.032 6.27747 11.032 7.91139H11.432C11.432 6.0737 10.0056 4.56844 8.22728 4.56844V4.96844ZM11.032 7.91139C11.032 9.54531 9.76789 10.8543 8.22728 10.8543V11.2543C10.0056 11.2543 11.432 9.74907 11.432 7.91139H11.032ZM8.22728 10.8543C6.68667 10.8543 5.42258 9.54531 5.42258 7.91139H5.02258C5.02258 9.74907 6.44899 11.2543 8.22728 11.2543V10.8543ZM5.42258 7.91139C5.42258 6.27747 6.68667 4.96844 8.22728 4.96844V4.56844C6.44899 4.56844 5.02258 6.0737 5.02258 7.91139H5.42258ZM18.4926 4.40581C16.6665 2.86412 13.9972 3.12816 12.4802 4.9953L12.7907 5.24753C14.1686 3.55161 16.582 3.31627 18.2346 4.71145L18.4926 4.40581ZM12.4802 4.9953C12.2138 5.32319 12.2505 5.81345 12.5664 6.09432L12.8322 5.79537C12.6781 5.65839 12.6576 5.41132 12.7907 5.24753L12.4802 4.9953ZM12.5664 6.09432C12.8877 6.37993 13.3711 6.33727 13.6417 6.00414L13.3313 5.75191C13.2025 5.91045 12.981 5.92763 12.8322 5.79537L12.5664 6.09432ZM13.6417 6.00414C14.6273 4.7911 16.3519 4.62344 17.533 5.6206L17.7911 5.31496C16.4364 4.17129 14.456 4.36765 13.3313 5.75191L13.6417 6.00414ZM17.533 5.6206C18.7192 6.62206 18.9285 8.43589 17.9986 9.70547L18.3213 9.94182C19.3732 8.50556 19.1406 6.45434 17.7911 5.31496L17.533 5.6206ZM17.9986 9.70547C17.0724 10.9702 15.3578 11.2281 14.1307 10.2955L13.8887 10.6139C15.2978 11.6849 17.2658 11.383 18.3213 9.94182L17.9986 9.70547ZM14.1316 10.2962C14.0162 10.2074 13.9049 10.1076 13.8011 9.99922L13.5123 10.2759C13.6298 10.3986 13.7561 10.512 13.8878 10.6132L14.1316 10.2962ZM13.8011 9.99922C13.5039 9.689 13.0187 9.68953 12.7222 10.0004L13.0116 10.2765C13.1508 10.1306 13.3728 10.1304 13.5123 10.2759L13.8011 9.99922ZM12.7222 10.0004C12.4305 10.3061 12.4309 10.7978 12.7233 11.1029L13.0121 10.8262C12.8678 10.6756 12.8675 10.4275 13.0116 10.2765L12.7222 10.0004ZM12.7233 11.1029C12.8806 11.2671 13.0495 11.4187 13.2287 11.5565L13.4725 11.2394C13.3094 11.114 13.1555 10.9759 13.0121 10.8262L12.7233 11.1029ZM13.2296 11.5572C15.1312 13.0026 17.784 12.5966 19.208 10.6523L18.8853 10.416C17.5907 12.1837 15.1914 12.5459 13.4717 11.2387L13.2296 11.5572ZM19.208 10.6523C20.6283 8.71302 20.3136 5.94321 18.4926 4.40581L18.2346 4.71145C19.8922 6.11093 20.1836 8.64335 18.8853 10.416L19.208 10.6523ZM2.00005 19.8159C2.00005 16.2048 4.79646 13.293 8.22728 13.293V12.893C4.55878 12.893 1.60005 16.0011 1.60005 19.8159H2.00005ZM8.22728 13.293C11.6581 13.293 14.4545 16.2048 14.4545 19.8159H14.8545C14.8545 16.0011 11.8958 12.893 8.22728 12.893V13.293ZM14.4545 19.8159C14.4545 20.0367 14.2856 20.2001 14.096 20.2001V20.6001C14.5233 20.6001 14.8545 20.2404 14.8545 19.8159H14.4545ZM14.096 20.2001H2.35852V20.6001H14.096V20.2001ZM2.35852 20.2001C2.16893 20.2001 2.00005 20.0367 2.00005 19.8159H1.60005C1.60005 20.2404 1.93125 20.6001 2.35852 20.6001V20.2001ZM13.6743 18.9411C13.2855 16.2797 11.1476 14.2086 8.51113 14.0688L8.48995 14.4683C10.922 14.5972 12.9152 16.5117 13.2785 18.9989L13.6743 18.9411ZM8.50583 14.0686L8.23257 14.0614L8.22199 14.4612L8.49526 14.4685L8.50583 14.0686ZM8.22728 14.0613C5.46205 14.0613 3.1829 16.1848 2.78028 18.9411L3.17608 18.9989C3.55241 16.4227 5.67683 14.4613 8.22728 14.4613V14.0613ZM2.77983 18.9444L2.74607 19.2053L3.14276 19.2567L3.17653 18.9957L2.77983 18.9444ZM2.94441 19.431H13.5079V19.031H2.94441V19.431ZM13.7065 19.207L13.6749 18.946L13.2778 18.994L13.3094 19.255L13.7065 19.207ZM19.7358 14.2692C18.0581 12.9608 15.8863 12.5563 13.8776 13.1805L13.9963 13.5625C15.878 12.9777 17.9139 13.3556 19.4898 14.5846L19.7358 14.2692ZM13.8776 13.1805C13.4718 13.3066 13.2527 13.7454 13.3683 14.1525L13.7531 14.0432C13.693 13.8317 13.8108 13.6201 13.9963 13.5625L13.8776 13.1805ZM13.3683 14.1525C13.4848 14.5627 13.9045 14.8098 14.3144 14.6824L14.1957 14.3005C14.0144 14.3568 13.8122 14.2515 13.7531 14.0432L13.3683 14.1525ZM14.3144 14.6824C15.8583 14.2027 17.5288 14.5126 18.8222 15.5213L19.0682 15.2058C17.673 14.1178 15.8666 13.7812 14.1957 14.3005L14.3144 14.6824ZM18.8176 15.5175L19.0631 15.721L19.3183 15.4131L19.0728 15.2096L18.8176 15.5175ZM19.0586 15.7172C20.0556 16.5947 20.6941 17.837 20.8473 19.187L21.2448 19.1419C21.0807 17.6964 20.3967 16.3621 19.3229 15.4169L19.0586 15.7172ZM20.8467 19.1808L20.8522 19.2473L21.2508 19.2147L21.2454 19.1481L20.8467 19.1808ZM21.0515 19.031L16.192 19.0318L16.192 19.4318L21.0515 19.431L21.0515 19.031ZM16.171 19.0329L16.0585 19.0447L16.1004 19.4425L16.213 19.4307L16.171 19.0329ZM16.0376 19.0481C15.6869 19.1231 15.4335 19.4434 15.4335 19.8159H15.8335C15.8335 19.6238 15.9631 19.4731 16.1213 19.4392L16.0376 19.0481ZM15.4335 19.8159C15.4335 20.2404 15.7647 20.6001 16.192 20.6001V20.2001C16.0024 20.2001 15.8335 20.0367 15.8335 19.8159H15.4335ZM16.192 20.6001H21.6416V20.2001H16.192V20.6001ZM21.6626 20.599L21.7752 20.5871L21.7332 20.1893L21.6206 20.2012L21.6626 20.599ZM21.7961 20.5838C22.1469 20.5086 22.4003 20.188 22.4001 19.8154L22.0001 19.8157C22.0002 20.0079 21.8706 20.1587 21.7123 20.1927L21.7961 20.5838ZM22.4001 19.8154C22.3986 17.6333 21.4128 15.577 19.7358 14.2692L19.4898 14.5846C21.0665 15.8142 21.9987 17.7526 22.0001 19.8157L22.4001 19.8154Z" fill="#A3AED0"/>
</svg>
