<svg width="36" height="36" viewBox="0 0 36 36" fill="none" xmlns="http://www.w3.org/2000/svg">
<path fill-rule="evenodd" clip-rule="evenodd" d="M18 6.3C15.5147 6.3 13.5 8.31472 13.5 10.8C13.5 13.2853 15.5147 15.3 18 15.3C20.4853 15.3 22.5 13.2853 22.5 10.8C22.5 8.31472 20.4853 6.3 18 6.3ZM11.7 10.8C11.7 7.32061 14.5206 4.5 18 4.5C21.4794 4.5 24.3 7.32061 24.3 10.8C24.3 14.2794 21.4794 17.1 18 17.1C14.5206 17.1 11.7 14.2794 11.7 10.8Z" fill="#009FE3"/>
<path fill-rule="evenodd" clip-rule="evenodd" d="M18 20.7C12.5324 20.7 8.1 25.1324 8.1 30.6C8.1 31.0971 7.69706 31.5 7.2 31.5C6.70294 31.5 6.3 31.0971 6.3 30.6C6.3 24.1383 11.5383 18.9 18 18.9C24.4617 18.9 29.7 24.1383 29.7 30.6C29.7 31.0971 29.2971 31.5 28.8 31.5C28.3029 31.5 27.9 31.0971 27.9 30.6C27.9 25.1324 23.4676 20.7 18 20.7Z" fill="#009FE3"/>
</svg>
