<svg width="34" height="34" viewBox="0 0 34 34" fill="none" xmlns="http://www.w3.org/2000/svg">
<path fill-rule="evenodd" clip-rule="evenodd" d="M11.6552 5.1001C8.43045 5.1001 5.81624 7.83459 5.81624 11.2078C5.81624 14.5809 8.43045 17.3154 11.6552 17.3154C14.88 17.3154 17.4942 14.5809 17.4942 11.2078C17.4942 7.83459 14.88 5.1001 11.6552 5.1001ZM11.6552 6.75524C14.0061 6.75524 15.9119 8.7487 15.9119 11.2078C15.9119 13.6668 14.0061 15.6603 11.6552 15.6603C9.30436 15.6603 7.39858 13.6668 7.39858 11.2078C7.39858 8.7487 9.30436 6.75524 11.6552 6.75524ZM26.015 6.45802C23.551 4.37773 19.9507 4.73146 17.9001 7.2553C17.6172 7.60357 17.6577 8.12584 17.9906 8.42183C18.3236 8.71782 18.8229 8.67543 19.1058 8.32716C20.6006 6.4874 23.225 6.22956 25.0212 7.74598C26.8173 9.26241 27.1303 12.0002 25.7266 13.9168C24.3228 15.8334 21.7143 16.23 19.847 14.8108C19.672 14.6762 19.5037 14.5252 19.3469 14.3615C19.0376 14.0387 18.5367 14.0392 18.228 14.3627C17.9194 14.6862 17.9199 15.2102 18.2292 15.5331C18.4422 15.7554 18.6709 15.9607 18.9133 16.1471C21.4785 18.0968 25.057 17.5527 26.9827 14.9234C28.9083 12.2941 28.479 8.53831 26.015 6.45802ZM2.55 28.0725C2.55 22.8125 6.62656 18.5483 11.6552 18.5483C16.6839 18.5483 20.7605 22.8125 20.7605 28.0725C20.7605 28.5296 20.4063 28.9001 19.9693 28.9001H3.34117C2.90422 28.9001 2.55 28.5296 2.55 28.0725ZM19.0915 26.8741C18.5587 23.2272 15.6326 20.4041 12.0424 20.2137L11.6552 20.2035C7.88997 20.2035 4.77078 23.097 4.21902 26.8741L4.17118 27.2439H19.1362L19.0915 26.8741ZM27.7847 20.438C25.4801 18.6407 22.4996 18.0865 19.744 18.9429C19.3251 19.0731 19.0865 19.5338 19.2109 19.9719C19.3353 20.41 19.7758 20.6597 20.1946 20.5295C22.4717 19.8219 24.9345 20.2798 26.8389 21.765L27.1868 22.0533C28.6536 23.3444 29.5904 25.1694 29.8152 27.1496L29.8229 27.2439L22.9386 27.245L22.7792 27.2618C22.4187 27.3389 22.1475 27.6726 22.1475 28.0725C22.1475 28.5296 22.5017 28.9001 22.9386 28.9001H30.6588L30.8184 28.8833C31.179 28.806 31.4503 28.4721 31.45 28.0719C31.448 25.065 30.0894 22.2354 27.7847 20.438Z" fill="#009FE3"/>
</svg>
