<svg width="37" height="37" viewBox="0 0 37 37" fill="none" xmlns="http://www.w3.org/2000/svg">
<path fill-rule="evenodd" clip-rule="evenodd" d="M6.761 8.761C7.24826 8.27374 7.90913 8 8.59822 8H27.2099C27.899 8 28.5598 8.27374 29.0471 8.761C29.5344 9.24826 29.8081 9.90912 29.8081 10.5982V14.7076C29.8081 15.2081 29.4024 15.6139 28.9018 15.6139C28.4013 15.6139 27.9956 15.2081 27.9956 14.7076V14.3437H7.81249V24.134C7.81249 24.3424 7.89528 24.5422 8.04263 24.6896C8.18998 24.8369 8.38983 24.9197 8.59822 24.9197H17.0581C17.5586 24.9197 17.9643 25.3254 17.9643 25.8259C17.9643 26.3264 17.5586 26.7322 17.0581 26.7322H8.59822C7.90913 26.7322 7.24826 26.4584 6.761 25.9712C6.27374 25.4839 6 24.8231 6 24.134V10.5982C6 9.90913 6.27374 9.24826 6.761 8.761ZM27.9956 10.5982V12.5312H7.81249V10.5982C7.81249 10.3898 7.89528 10.19 8.04263 10.0426C8.18998 9.89528 8.38983 9.81249 8.59822 9.81249H27.2099C27.4183 9.81249 27.6181 9.89528 27.7655 10.0426C27.9128 10.19 27.9956 10.3898 27.9956 10.5982Z" fill="#009FE3"/>
<path d="M10.2905 17.3059C9.79001 17.3059 9.38427 17.7116 9.38427 18.2121C9.38427 18.7126 9.79001 19.1183 10.2905 19.1183H19.353C19.8535 19.1183 20.2592 18.7126 20.2592 18.2121C20.2592 17.7116 19.8535 17.3059 19.353 17.3059H10.2905Z" fill="#009FE3"/>
<path d="M9.38427 21.5959C9.38427 21.0954 9.79001 20.6897 10.2905 20.6897H13.9155C14.416 20.6897 14.8218 21.0954 14.8218 21.5959C14.8218 22.0964 14.416 22.5022 13.9155 22.5022H10.2905C9.79001 22.5022 9.38427 22.0964 9.38427 21.5959Z" fill="#009FE3"/>
<path fill-rule="evenodd" clip-rule="evenodd" d="M28.0181 22.5231C27.621 22.1256 27.3979 21.5867 27.3979 21.0248C27.3979 20.4629 27.621 19.924 28.0181 19.5264L30.1616 17.383C30.5591 16.9858 31.0983 16.7625 31.6602 16.7625C32.2221 16.7625 32.7611 16.9855 33.1586 17.3827L33.6687 17.8928C34.4001 18.6242 34.8602 19.5833 34.9729 20.6115C35.0822 21.6082 34.8587 22.6121 34.3389 23.4674C34.3239 23.4981 34.3072 23.528 34.2887 23.5571C33.3015 25.1077 32.1476 26.5456 30.8476 27.8452L29.4704 29.2225C28.1715 30.5215 26.7342 31.6743 25.1842 32.6603C25.1571 32.6776 25.1291 32.6934 25.1005 32.7076C24.2441 33.2292 23.2385 33.4535 22.2401 33.3441C21.212 33.2314 20.253 32.7715 19.5215 32.0403L19.0115 31.5303C18.6144 31.1328 18.391 30.5936 18.391 30.0317C18.391 29.4698 18.6141 28.9309 19.0112 28.5334L21.1547 26.3899C21.5522 25.9927 22.0914 25.7694 22.6533 25.7694C23.2151 25.7694 23.754 25.9924 24.1515 26.3894C24.2094 26.4472 24.2878 26.4797 24.3695 26.4797C24.4513 26.4797 24.5297 26.4472 24.5876 26.3894L28.0184 22.9586C28.047 22.9301 28.0703 22.8956 28.0857 22.8584C28.1012 22.8212 28.1091 22.7813 28.1091 22.741C28.1091 22.7007 28.1012 22.6608 28.0857 22.6236C28.0703 22.5864 28.0467 22.5516 28.0181 22.5231ZM31.4429 18.6649C31.5006 18.6073 31.5787 18.575 31.6602 18.575C31.7417 18.575 31.8199 18.6073 31.8775 18.6649L32.3871 19.1745C32.8269 19.6142 33.1035 20.1908 33.1712 20.809C33.239 21.4272 33.0939 22.05 32.7598 22.5746C32.7432 22.6006 32.728 22.6274 32.7142 22.6549C31.8081 24.0668 30.7527 25.3773 29.5661 26.5635L28.1888 27.9409C27.0021 29.1276 25.6911 30.1828 24.2783 31.0883C24.2527 31.1013 24.2277 31.1156 24.2033 31.1312C23.6786 31.4651 23.0558 31.6101 22.4376 31.5424C21.8194 31.4746 21.2428 31.1981 20.803 30.7586L20.2934 30.249C20.2359 30.1914 20.2035 30.1131 20.2035 30.0317C20.2035 29.9503 20.2358 29.8722 20.2933 29.8145L22.436 27.6718C22.4937 27.6143 22.5719 27.5819 22.6533 27.5819C22.7348 27.5819 22.813 27.6142 22.8706 27.6718C23.2683 28.0689 23.8075 28.2922 24.3695 28.2922C24.9316 28.2922 25.4706 28.0691 25.8683 27.672L29.2993 24.2409C29.4964 24.0442 29.6532 23.8101 29.7599 23.553C29.8667 23.2956 29.9216 23.0197 29.9216 22.741C29.9216 22.4624 29.8667 22.1864 29.7599 21.9291C29.6532 21.6719 29.4968 21.4383 29.2998 21.2416C29.2426 21.184 29.2104 21.106 29.2104 21.0248C29.2104 20.9433 29.2428 20.8651 29.3004 20.8075L31.4429 18.6649Z" fill="#009FE3"/>
</svg>
