<svg width="38" height="38" viewBox="0 0 38 38" fill="none" xmlns="http://www.w3.org/2000/svg">
<path fill-rule="evenodd" clip-rule="evenodd" d="M15.7569 6.25646C16.1132 5.90013 16.5965 5.69995 17.1004 5.69995H20.9006C21.4045 5.69995 21.8878 5.90013 22.2441 6.25646C22.6004 6.61278 22.8006 7.09606 22.8006 7.59998V30.4008H24.7007V15.2002C24.7007 14.6963 24.9009 14.213 25.2572 13.8567C25.6136 13.5003 26.0968 13.3001 26.6008 13.3001H30.4009C30.9048 13.3001 31.3881 13.5003 31.7444 13.8567C32.1007 14.213 32.3009 14.6963 32.3009 15.2002V30.4008H33.251C33.7757 30.4008 34.201 30.8261 34.201 31.3508C34.201 31.8754 33.7757 32.3008 33.251 32.3008H31.3536C31.3527 32.3008 31.3518 32.3008 31.3509 32.3008H25.6507C25.6499 32.3008 25.649 32.3008 25.6481 32.3008H4.75005C4.22538 32.3008 3.80005 31.8754 3.80005 31.3508C3.80005 30.8261 4.22538 30.4008 4.75005 30.4008H5.70012V19.0003C5.70012 18.4964 5.9003 18.0131 6.25663 17.6568C6.61295 17.3005 7.09623 17.1003 7.60015 17.1003H11.4003C11.9042 17.1003 12.3875 17.3005 12.7438 17.6568C13.1001 18.0131 13.3003 18.4964 13.3003 19.0003V30.4008H15.2004V7.59998C15.2004 7.09606 15.4006 6.61278 15.7569 6.25646ZM30.4009 30.4008V15.2002L26.6008 15.2001L26.6007 30.4008H30.4009ZM17.1004 7.59995L17.1004 30.4008H20.9006V7.59998L17.1004 7.59995ZM7.60013 19.0003L11.4003 19.0003L11.4003 30.4007H7.60012L7.60013 19.0003Z" fill="#009FE3"/>
</svg>
