<svg width="402" height="146" viewBox="0 0 402 146" fill="none" xmlns="http://www.w3.org/2000/svg">
<path d="M151.408 41.2368L150.449 47.3947H142.872L139.899 65.8686H132.227L136.159 41.2368H151.408Z" fill="#1E1E1E"/>
<path d="M173.746 57.1519C173.267 59.994 172.116 62.2677 170.198 64.0677C168.376 65.773 166.266 66.6257 163.964 66.6257C161.759 66.6257 160.128 65.6782 158.882 63.6888C158.786 64.5414 158.69 65.5835 158.498 66.8151L157.251 74.7731H150.155L154.278 48.8149H161.087L160.8 50.8044C162.334 49.0044 164.348 48.1518 166.937 48.1518C168.951 48.1518 170.678 48.815 172.02 50.0465C173.363 51.3729 174.034 53.0781 174.034 55.3518C173.842 55.9203 173.842 56.5835 173.746 57.1519ZM166.554 57.3413C166.554 57.0571 166.65 56.8676 166.65 56.5834C166.65 54.7834 165.691 53.8361 163.677 53.8361C162.622 53.8361 161.759 54.1202 161.087 54.6887C160.416 55.2571 159.937 56.015 159.745 57.0571V57.3413C159.745 57.5308 159.649 57.7203 159.649 57.9098C159.649 58.7624 159.937 59.4256 160.512 59.994C161.087 60.5624 161.759 60.8466 162.622 60.8466C164.828 60.8466 166.17 59.7098 166.554 57.3413Z" fill="#1E1E1E"/>
<path d="M198.955 48.8147L182.652 74.7729H175.363L181.885 64.9201L175.843 48.8147H183.899L186.488 57.9096L191.763 48.8147H198.955Z" fill="#1E1E1E"/>
<path d="M218.229 48.8159L215.448 65.8687H208.351L210.269 54.1213H205.762L203.844 65.8687H196.843L199.624 48.8159H218.229Z" fill="#1E1E1E"/>
<path d="M240.944 48.8156L238.163 65.8684H231.067L232.985 54.1209H228.477L226.559 65.8684H219.462L222.244 48.8156H240.944Z" fill="#1E1E1E"/>
<path d="M264.627 48.8161L261.846 65.8689H255.037L255.421 63.69C253.886 65.5847 251.872 66.5321 249.283 66.5321C247.269 66.5321 245.543 65.8689 244.296 64.4479C242.953 63.1215 242.378 61.3216 242.378 59.0479C242.378 58.4794 242.474 57.8162 242.57 57.2478C243.049 54.4057 244.2 52.2267 246.118 50.5215C247.94 48.9109 249.954 48.153 252.352 48.153C254.749 48.153 256.475 49.1004 257.435 50.9004L257.818 48.8161H264.627ZM256.475 57.3425C256.475 57.1531 256.475 56.8689 256.475 56.6794C256.475 55.8268 256.188 55.1636 255.708 54.5952C255.229 54.0267 254.462 53.8373 253.598 53.8373C252.544 53.8373 251.584 54.1215 250.913 54.7847C250.146 55.4478 249.762 56.3004 249.571 57.3425C249.571 57.6267 249.475 57.8163 249.475 58.1005C249.475 59.9952 250.434 60.8478 252.448 60.8478C253.503 60.8478 254.366 60.5636 255.133 59.9005C255.9 59.332 256.284 58.3846 256.475 57.3425Z" fill="#1E1E1E"/>
<path d="M152.989 88.4463C152.798 89.6778 152.222 90.8147 151.359 91.8569C150.496 92.899 149.345 93.5621 148.098 94.0358C148.098 94.0358 148.098 94.0358 148.098 94.1305C150.496 95.0779 151.743 96.6885 151.743 98.9622C151.743 99.3411 151.743 99.7201 151.647 100.099C151.263 102.373 150.017 104.173 147.811 105.689C145.701 107.11 143.112 107.773 140.235 107.773C136.494 107.773 133.426 106.825 131.028 104.931L134.576 99.7201C136.111 101.141 137.837 101.899 139.851 101.899C140.81 101.899 141.673 101.71 142.344 101.236C143.207 100.667 143.591 100.004 143.591 99.0569C143.591 97.8253 142.536 97.1621 140.522 97.1621H138.029L138.892 91.7621H141.289C142.248 91.7621 143.112 91.5726 143.687 91.2884C144.55 90.8147 144.934 90.1516 144.934 89.2989C144.934 88.0673 143.879 87.4989 141.865 87.4989C140.235 87.4989 138.412 88.0673 136.303 89.1094L135.056 83.9936C138.125 82.3831 141.098 81.6252 144.167 81.6252C146.852 81.6252 148.962 82.1936 150.592 83.3305C152.222 84.4673 152.989 85.8883 152.989 87.6884C153.085 87.7831 153.085 88.162 152.989 88.4463Z" fill="#1E1E1E"/>
<path d="M176.766 89.8711L173.985 106.924H167.176L167.56 104.745C166.025 106.64 164.011 107.587 161.422 107.587C159.408 107.587 157.682 106.924 156.435 105.503C155.092 104.176 154.517 102.376 154.517 100.103C154.517 99.5344 154.613 98.8712 154.709 98.3028C155.188 95.4606 156.339 93.2817 158.257 91.5764C160.079 89.9658 162.093 89.2079 164.491 89.2079C166.888 89.2079 168.615 90.1553 169.574 91.9553L169.957 89.8711H176.766ZM168.615 98.3975C168.615 98.208 168.615 97.9238 168.615 97.7343C168.615 96.8817 168.327 96.2185 167.847 95.6501C167.368 95.0817 166.601 94.8922 165.738 94.8922C164.683 94.8922 163.724 95.1764 163.052 95.8396C162.285 96.5028 161.901 97.3553 161.71 98.3975C161.71 98.6817 161.614 98.8712 161.614 99.1554C161.614 101.05 162.573 101.903 164.587 101.903C165.642 101.903 166.505 101.619 167.272 100.955C167.943 100.387 168.423 99.4396 168.615 98.3975Z" fill="#1E1E1E"/>
<path d="M193.635 90.2485L192.676 96.1222C191.812 95.3643 190.758 94.9853 189.703 94.9853C188.648 94.9853 187.785 95.2696 187.017 95.9327C186.25 96.5959 185.771 97.4485 185.579 98.5854C185.579 98.7748 185.483 99.0591 185.483 99.2485C185.483 100.101 185.771 100.764 186.346 101.238C186.921 101.712 187.689 101.996 188.744 101.996C189.894 101.996 190.949 101.617 191.908 100.954L190.949 106.733C189.511 107.396 187.976 107.68 186.346 107.68C183.853 107.68 181.839 107.017 180.4 105.596C178.866 104.175 178.098 102.375 178.098 100.101C178.098 99.5328 178.098 99.059 178.194 98.3959C178.578 95.7432 179.825 93.5643 181.935 91.859C184.044 90.059 186.538 89.2064 189.319 89.2064C190.853 89.2064 192.292 89.5853 193.635 90.2485Z" fill="#1E1E1E"/>
<path d="M211.277 89.8711L210.414 95.1764H206.099L204.181 106.924H197.084L199.002 95.1764H194.782L195.645 89.8711H211.277Z" fill="#1E1E1E"/>
<path d="M233.807 98.2072C233.328 101.049 232.177 103.323 230.259 105.123C228.437 106.828 226.327 107.681 224.025 107.681C221.82 107.681 220.189 106.734 218.943 104.744C218.847 105.597 218.751 106.639 218.559 107.87L217.312 115.828H210.12L214.243 89.8703H221.053L220.765 91.8598C222.299 90.0598 224.313 89.2072 226.903 89.2072C228.916 89.2072 230.643 89.8703 231.985 91.1019C233.328 92.4282 233.999 94.1335 233.999 96.4072C233.903 96.9756 233.903 97.6388 233.807 98.2072ZM226.615 98.3967C226.615 98.1125 226.711 97.923 226.711 97.6388C226.711 95.8388 225.752 94.8914 223.738 94.8914C222.683 94.8914 221.82 95.1756 221.148 95.744C220.477 96.3125 219.998 97.0704 219.806 98.1125V98.3967C219.806 98.5861 219.71 98.7757 219.71 98.9651C219.71 99.8178 219.998 100.481 220.573 101.049C221.148 101.618 221.82 101.902 222.683 101.902C224.889 101.902 226.231 100.765 226.615 98.3967Z" fill="#1E1E1E"/>
<path d="M255.662 98.3977C255.279 101.05 253.936 103.229 251.73 104.935C249.525 106.735 246.839 107.587 243.675 107.587C240.893 107.587 238.592 106.829 236.961 105.408C235.331 103.987 234.564 102.092 234.564 99.8188C234.564 99.3451 234.564 98.8714 234.66 98.303C235.043 95.6503 236.386 93.5661 238.592 91.8608C240.798 90.0608 243.483 89.2082 246.648 89.2082C249.429 89.2082 251.634 89.9661 253.361 91.3871C254.991 92.8082 255.758 94.6082 255.758 96.8819C255.758 97.4504 255.758 97.924 255.662 98.3977ZM248.374 98.3977C248.374 98.2082 248.47 98.0188 248.47 97.8293C248.47 97.0714 248.278 96.4082 247.798 95.9346C247.319 95.3661 246.648 95.0819 245.784 95.0819C244.73 95.0819 243.866 95.4608 243.099 96.2188C242.332 96.9767 241.948 97.924 241.948 98.8714C241.948 99.6293 242.14 100.292 242.62 100.861C243.099 101.429 243.77 101.714 244.634 101.714C245.593 101.714 246.456 101.335 247.127 100.671C247.798 100.103 248.278 99.2503 248.374 98.3977Z" fill="#1E1E1E"/>
<path d="M278.479 89.8683L275.698 106.921H268.793L270.136 98.2999L263.231 106.921H256.613L259.395 89.8683H266.3L264.957 98.2999L271.862 89.8683H278.479ZM276.081 83.0472C275.794 84.563 275.122 85.8893 273.876 86.8367C272.629 87.7841 271.095 88.2578 269.272 88.2578C267.642 88.2578 266.3 87.8788 265.34 87.1209C264.381 86.363 263.902 85.3209 263.902 83.9946C263.902 83.7103 263.902 83.4261 263.998 83.0472H267.93C267.93 83.2367 267.93 83.4261 267.93 83.6156C267.93 84.6577 268.505 85.2261 269.752 85.2261C271.191 85.2261 271.958 84.563 272.15 83.1419H276.081V83.0472Z" fill="#1E1E1E"/>
<path d="M311.267 101.71L309.828 110.805H303.883L304.458 107.015H280.578L283.36 89.9622H290.169L288.251 101.71H292.087L294.005 89.9622H300.43L298.512 101.71H302.348L304.266 89.9622H311.075L309.157 101.71H311.267Z" fill="#1E1E1E"/>
<path d="M334.182 89.871L331.401 106.924H324.496L325.839 98.3027L318.934 106.924H312.317L315.098 89.871H322.003L320.66 98.3027L327.565 89.871H334.182Z" fill="#1E1E1E"/>
<path d="M358.433 89.8691L350.569 97.9219L356.131 107.017H347.596L343.856 98.964L342.609 107.017H335.608L338.389 89.9639H345.39L344.239 97.3534L350.377 89.9639H358.433V89.8691Z" fill="#1E1E1E"/>
<path d="M378.469 98.3977C378.085 101.05 376.742 103.229 374.537 104.935C372.331 106.735 369.646 107.587 366.481 107.587C363.7 107.587 361.398 106.829 359.768 105.408C358.137 103.987 357.37 102.092 357.37 99.8188C357.37 99.3451 357.37 98.8714 357.466 98.303C357.85 95.6503 359.192 93.5661 361.398 91.8608C363.604 90.0608 366.289 89.2082 369.454 89.2082C372.235 89.2082 374.441 89.9661 376.167 91.3871C377.797 92.8082 378.564 94.6082 378.564 96.8819C378.66 97.4504 378.564 97.924 378.469 98.3977ZM371.276 98.3977C371.276 98.2082 371.372 98.0188 371.372 97.8293C371.372 97.0714 371.18 96.4082 370.701 95.9346C370.221 95.3661 369.55 95.0819 368.687 95.0819C367.632 95.0819 366.769 95.4608 366.001 96.2188C365.234 96.9767 364.85 97.924 364.85 98.8714C364.85 99.6293 365.042 100.292 365.522 100.861C366.001 101.429 366.673 101.714 367.536 101.714C368.495 101.714 369.358 101.335 370.029 100.671C370.701 100.103 371.084 99.2503 371.276 98.3977Z" fill="#1E1E1E"/>
<path d="M399.179 93.9446C399.083 94.7973 398.603 95.5552 397.932 96.1236C397.165 96.7867 396.206 97.2604 395.055 97.4499C397.74 98.113 399.083 99.4394 399.083 101.429C399.083 101.618 399.083 101.903 398.987 102.092C398.795 103.513 397.932 104.65 396.589 105.503C395.151 106.45 393.233 106.924 390.835 106.924H380.19L382.971 89.8708H392.274C396.877 89.8708 399.179 91.0077 399.179 93.2814C399.179 93.4709 399.179 93.7551 399.179 93.9446ZM391.699 101.145C391.699 100.197 391.027 99.7236 389.78 99.7236H388.15L387.671 102.945H389.301C389.972 102.945 390.452 102.85 390.931 102.566C391.411 102.187 391.699 101.713 391.699 101.145ZM392.37 95.1762C392.37 95.0815 392.37 94.9867 392.37 94.892C392.37 94.1341 391.794 93.6604 390.548 93.6604H389.205L388.726 96.692H390.164C391.411 96.7867 392.178 96.2183 392.37 95.1762Z" fill="#1E1E1E"/>
<path d="M64.7003 143.729L16.2238 117.319L16.0268 117.189L15.9611 116.93L2.88954 39.3225L2.82385 38.9981L3.08659 38.8034L63.518 2.98477L64.6346 2.33588L65.7513 2.98477L126.183 38.8034L126.445 38.9981L126.38 39.3225L113.242 116.93L113.177 117.124L112.98 117.254L64.7003 143.729ZM64.7003 140.484L112.717 116.475L112.454 116.8L125.591 39.1928L125.789 39.647L63.5836 6.94297H65.817L3.61209 39.647L3.80915 39.1928L16.9464 116.8L16.6837 116.411L64.7003 140.484Z" fill="#1E1E1E"/>
<path d="M23.6872 30.6278H24.2126V123.808H23.6872V30.6278Z" fill="#1E1E1E"/>
<path d="M42.5575 18.9153H43.1487V132.471H42.5575V18.9153Z" fill="#1E1E1E"/>
<path d="M104.645 123.821V30.6405H105.17V123.821H104.645Z" fill="#1E1E1E"/>
<path d="M85.7141 132.497V18.941H86.3052V132.497H85.7141Z" fill="#1E1E1E"/>
<path d="M64.3726 141.393V2.79034H64.9638V141.393H64.3726Z" fill="#1E1E1E"/>
<path d="M64.766 59.1791L121.19 68.9124L64.5689 60.3471L64.766 59.1791Z" fill="#1E1E1E"/>
<path d="M65.0946 30.2385L122.964 56.5185L64.6348 31.2767L65.0946 30.2385Z" fill="#1E1E1E"/>
<path d="M64.7667 92.4666L118.695 84.5502L64.9637 93.6347L64.7667 92.4666Z" fill="#1E1E1E"/>
<path d="M64.4389 120.564L116.134 97.723L64.8987 121.602L64.4389 120.564Z" fill="#1E1E1E"/>
<path d="M64.7673 60.3471L8.08005 68.9124L64.5702 59.1791L64.7673 60.3471Z" fill="#1E1E1E"/>
<path d="M64.6995 31.2767L6.37012 56.5185L64.2397 30.2385L64.6995 31.2767Z" fill="#1E1E1E"/>
<path d="M64.3726 93.6347L10.6412 84.5502L64.5696 92.4666L64.3726 93.6347Z" fill="#1E1E1E"/>
<path d="M64.4379 121.602L13.2026 97.7227L64.8977 120.564L64.4379 121.602Z" fill="#1E1E1E"/>
<path d="M24.8958 51.3922L22.3997 49.9647L24.633 48.9265V48.9913L24.8958 51.3922Z" fill="#1E1E1E"/>
<path d="M29.6258 102.265L27.0641 103.693L22.1376 50.2889L24.8964 51.9112L29.6258 102.265Z" fill="#1E1E1E"/>
<path d="M63.9137 121.277L61.352 119.979L61.2206 106.677L63.9137 108.234V121.277Z" fill="#009FE3"/>
<path d="M64.0425 74.6868L61.5464 74.7517L61.415 63.9801L64.0425 63.9152V74.6868Z" fill="#009FE3"/>
<path d="M63.8477 32.1846V34.9748L25.1585 51.5215L24.8958 51.3917L22.3997 49.9642L24.633 48.9908L63.8477 32.1846Z" fill="#1E1E1E"/>
<path d="M101.55 76.7637L104.178 76.9583L102.667 93.5699L100.039 92.5317L101.55 76.7637Z" fill="#009FE3"/>
<path d="M102.208 69.4957L104.836 69.885L104.245 76.3739L101.617 76.2441L102.208 69.4957Z" fill="#1E1E1E"/>
<path d="M106.215 50.0294L103.916 51.4569L104.113 49.1209L106.018 49.9645L106.215 50.0294Z" fill="#1E1E1E"/>
<path d="M106.609 50.4187V50.6134L104.901 69.3014L102.274 68.912L103.85 52.2356L104.179 51.9761L106.609 50.4187Z" fill="#009FE3"/>
<path d="M106.214 50.0287L103.915 51.4563L103.587 51.7158L65.2918 34.9745V32.2491L104.112 49.1203L106.017 49.9638L106.214 50.0287Z" fill="#009FE3"/>
<path d="M111.732 71.7021L106.674 73.3243L111.075 75.6603L110.747 77.607L107.528 101.551L64.6348 121.083L64.8318 108.04L103.39 93.8292L104.638 76.5039L64.8318 74.7519L64.7662 63.8505L105.36 69.9501L107.725 49.6399L64.8318 30.7572H64.7005V14.4701L116.658 42.3074L111.732 71.7021Z" fill="#1E1E1E"/>
<path d="M64.6997 14.4698V30.757H64.5026L21.3467 49.8343L26.2732 103.433L20.0987 100.707L10.7055 43.3454L64.6997 14.4698Z" fill="#009FE3"/>
<path d="M101.749 93.8291L99.9098 94.5429L63.9137 107.78L61.2206 106.288L99.5814 92.9856L99.9755 93.1803L101.749 93.8291Z" fill="#009FE3"/>
</svg>
